# xmcd
#
# Track frame offsets:
#	150
#	10536
#	26341
#	36904
#	44266
#	54020
#	68288
#	79580
#	89640
#	97635
#	109376
#	118958
#	135358
#
# Disc length: 1929 seconds
#
# Revision: 0
# Processed by: cddbd v1.5.2PL0 Copyright (c) Steve Scherf et al.
# Submitted via: EZCDAudioConverter 1.3.2.1
#
DISCID=9007870d
DTITLE=The Jordanaires - Believe: A Collection of Bluegrass Hymns [CD2]
DYEAR=2005
DGENRE=Gospel
TTITLE0=Trust And Obey
TTITLE1=Blessed
TTITLE2=Blessed Assurance
TTITLE3=All Hail The Power
TTITLE4=Power In The Blood
TTITLE5=Rock Of Ages
TTITLE6=When We All Get To Heaven
TTITLE7=Peace Like A River
TTITLE8=Amazing Grace
TTITLE9=Jesus Loves Me
TTITLE10=Oh How I Love Jesus
TTITLE11=Go With God
TTITLE12=Dig A Little Deeper
EXTD=
EXTT0=
EXTT1=
EXTT2=
EXTT3=
EXTT4=
EXTT5=
EXTT6=
EXTT7=
EXTT8=
EXTT9=
EXTT10=
EXTT11=
EXTT12=
PLAYORDER=
